# xmcd CD database file
#
# Track frame offsets:
#	150
#	15697
#	30420
#	46902
#	61615
#	79060
#	96612
#	112392
#	128245
#	151840
#	164607
#
# Disc length: 2375 seconds
#
# Revision: 0
# Processed by: cddbd v1.5.1PL2 Copyright (c) Steve Scherf et al.
# Submitted via: CDex 1.51
#
DISCID=8a09450b
DTITLE=Série Télévision - Watatatow  volume 1
DYEAR=1997
DGENRE=Québécois
TTITLE0=c'est bon pour les autres
TTITLE1=j't'attends
TTITLE2=malgré tout
TTITLE3=dis-moi je t'aime
TTITLE4=j'en sais rien
TTITLE5=pas comme tout'l monde
TTITLE6=vas-y j't'écoute
TTITLE7=confidences
TTITLE8=vol de nuit
TTITLE9=Watatatow
TTITLE10=Watatatow (instrumental)
EXTD=YEAR: 1997
EXTT0=
EXTT1=
EXTT2=
EXTT3=
EXTT4=
EXTT5=
EXTT6=
EXTT7=
EXTT8=
EXTT9=
EXTT10=
PLAYORDER=
